<?xml version="1.0" encoding="UTF-8" standalone="no"?>
<!-- Created with Inkscape (http://www.inkscape.org/) -->

<svg
   xmlns:dc="http://purl.org/dc/elements/1.1/"
   xmlns:cc="http://creativecommons.org/ns#"
   xmlns:rdf="http://www.w3.org/1999/02/22-rdf-syntax-ns#"
   xmlns:svg="http://www.w3.org/2000/svg"
   xmlns="http://www.w3.org/2000/svg"
   xmlns:xlink="http://www.w3.org/1999/xlink"
   xmlns:sodipodi="http://sodipodi.sourceforge.net/DTD/sodipodi-0.dtd"
   xmlns:inkscape="http://www.inkscape.org/namespaces/inkscape"
   version="1.2"
   width="396"
   height="468"
   viewBox="0 0 396 468"
   id="Layer_1"
   xml:space="preserve"
   style="overflow:visible"
   inkscape:version="0.48.2 r9819"
   sodipodi:docname="OpenSans.svg"><sodipodi:namedview
   pagecolor="#ffffff"
   bordercolor="#666666"
   borderopacity="1"
   objecttolerance="10"
   gridtolerance="10"
   guidetolerance="10"
   inkscape:pageopacity="0"
   inkscape:pageshadow="2"
   inkscape:window-width="1237"
   inkscape:window-height="1101"
   id="namedview80"
   showgrid="false"
   inkscape:zoom="1.5"
   inkscape:cx="215.31527"
   inkscape:cy="234"
   inkscape:window-x="700"
   inkscape:window-y="32"
   inkscape:window-maximized="0"
   inkscape:current-layer="Layer_1" /><metadata
   id="metadata179"><rdf:RDF><cc:Work
       rdf:about=""><dc:format>image/svg+xml</dc:format><dc:type
         rdf:resource="http://purl.org/dc/dcmitype/StillImage" /><dc:title /></cc:Work></rdf:RDF></metadata><defs
   id="defs177">
	
	
	
	
	
	
	
	
	
	
	
	
	
	
	

		<defs
   id="defs7">
			<rect
   width="396"
   height="468"
   x="0"
   y="0"
   id="XMLID_1_" />
		</defs>
		<clipPath
   id="XMLID_3_">
			<use
   id="use11"
   x="0"
   y="0"
   width="396"
   height="468"
   xlink:href="#XMLID_1_" />
		</clipPath>
		
		
	</defs>
<rect
   width="396"
   height="468"
   x="0"
   y="0"
   clip-path="url(#XMLID_3_)"
   id="rect13"
   style="fill:#ffffff;fill-rule:evenodd" />
<flowRoot
   id="flowRoot4016"
   xml:space="preserve"
   style="font-size:40px;font-style:normal;font-weight:normal;line-height:125%;letter-spacing:0px;word-spacing:0px;fill:#000000;fill-opacity:1;stroke:none;font-family:Open Sans;-inkscape-font-specification:Open Sans"><flowRegion
     id="flowRegion4018"><rect
       width="344.66666"
       height="44.666668"
       x="18.666666"
       y="322.66666"
       id="rect4020"
       style="font-family:Open Sans;-inkscape-font-specification:Open Sans" /></flowRegion><flowPara
     id="flowPara4022">ab</flowPara></flowRoot><g
   id="g5238"><g
     id="g5234"><rect
       width="396"
       height="156"
       x="0"
       y="311.6828"
       id="rect17"
       style="fill:#87a9c6;fill-opacity:1;fill-rule:evenodd" /><path
       inkscape:connector-curvature="0"
       d="M 0,0 H 396 V 312 H 0 V 0 z m 0,0"
       clip-path="url(#XMLID_3_)"
       id="path15"
       style="fill:#e7e5d1;fill-opacity:1;fill-rule:evenodd" /></g><g
     id="g5157"><g
       id="g4300"
       transform="translate(9.6627648,3.216445)"><g
         id="flowRoot3922"
         style="font-size:48px;font-style:normal;font-variant:normal;font-weight:bold;font-stretch:normal;line-height:125%;letter-spacing:0px;word-spacing:0px;fill:#87a9c6;fill-opacity:1;stroke:none;font-family:Open Sans;-inkscape-font-specification:Open Sans Bold"
         transform="translate(81.677083,20)"><path
           inkscape:connector-curvature="0"
           id="path4168"
           d="m 67.195312,239.57652 c -2.4e-5,3.09376 -1.11721,5.53126 -3.351562,7.3125 -2.218769,1.78125 -5.312516,2.67188 -9.28125,2.67188 -3.656258,0 -6.89063,-0.6875 -9.703125,-2.0625 l 0,-6.75 c 2.312495,1.03126 4.265619,1.75782 5.859375,2.17969 1.609365,0.42188 3.078114,0.63281 4.40625,0.63281 1.593736,0 2.812485,-0.30468 3.65625,-0.91406 0.859358,-0.60937 1.289045,-1.51562 1.289062,-2.71875 -1.7e-5,-0.67187 -0.187517,-1.26562 -0.5625,-1.78125 -0.375016,-0.53124 -0.929703,-1.03906 -1.664062,-1.52344 -0.718764,-0.48436 -2.195325,-1.2578 -4.429688,-2.32031 -2.093758,-0.98436 -3.664069,-1.92968 -4.710937,-2.83594 -1.04688,-0.90623 -1.882817,-1.96092 -2.507813,-3.16406 -0.625002,-1.20311 -0.937502,-2.60936 -0.9375,-4.21875 -2e-6,-3.03123 1.023434,-5.41404 3.070313,-7.14844 2.062492,-1.73434 4.906239,-2.60153 8.53125,-2.60156 1.781234,3e-5 3.476545,0.21097 5.085937,0.63281 1.62498,0.42191 3.32029,1.01566 5.085938,1.78125 l -2.34375,5.64844 c -1.828145,-0.74998 -3.343769,-1.27341 -4.546875,-1.57032 -1.187516,-0.29684 -2.35939,-0.44528 -3.515625,-0.44531 -1.375013,3e-5 -2.429699,0.32034 -3.164063,0.96094 -0.734385,0.64065 -1.101572,1.47659 -1.101562,2.50781 -1e-5,0.64065 0.148428,1.20315 0.445312,1.6875 0.296865,0.46877 0.765615,0.92971 1.40625,1.38281 0.656238,0.43752 2.195299,1.2344 4.617188,2.39063 3.203106,1.53127 5.398416,3.07033 6.585937,4.61719 1.187477,1.53126 1.781226,3.41407 1.78125,5.64843" /><path
           inkscape:connector-curvature="0"
           id="path4170"
           d="m 69.09375,222.88902 7.828125,0 4.945312,14.74219 c 0.421862,1.28126 0.710925,2.79688 0.867188,4.54688 l 0.140625,0 c 0.171861,-1.60937 0.507798,-3.12499 1.007812,-4.54688 l 4.851563,-14.74219 7.664062,0 -11.085937,29.55469 c -1.01564,2.73437 -2.468764,4.78124 -4.359375,6.14063 -1.87501,1.35936 -4.07032,2.03905 -6.585938,2.03906 -1.234379,-1e-5 -2.445315,-0.13283 -3.632812,-0.39844 l 0,-5.67187 c 0.859373,0.20311 1.796872,0.30468 2.8125,0.30468 1.265619,0 2.367181,-0.39063 3.304687,-1.17187 0.953117,-0.76563 1.695304,-1.92969 2.226563,-3.49219 L 79.5,248.90465 69.09375,222.88902" /><path
           inkscape:connector-curvature="0"
           id="path4172"
           d="m 110.76563,249.5609 c -8.15626,0 -12.234382,-4.47656 -12.23438,-13.42969 -2e-6,-4.45311 1.109372,-7.85154 3.32813,-10.19531 2.21874,-2.35935 5.39842,-3.53904 9.53906,-3.53906 3.03123,2e-5 5.74998,0.59377 8.15625,1.78125 l -2.10938,5.53125 c -1.12502,-0.45311 -2.17189,-0.8203 -3.14062,-1.10157 -0.96877,-0.29685 -1.93752,-0.44529 -2.90625,-0.44531 -3.71876,2e-5 -5.57814,2.64064 -5.57813,7.92188 -1e-5,5.125 1.85937,7.6875 5.57813,7.6875 1.37498,0 2.64842,-0.17969 3.82031,-0.53907 1.17185,-0.37499 2.34373,-0.95312 3.51563,-1.73437 l 0,6.11719 c -1.15628,0.73437 -2.32815,1.24218 -3.51563,1.52343 -1.17189,0.28125 -2.65627,0.42188 -4.45312,0.42188" /><path
           inkscape:connector-curvature="0"
           id="path4174"
           d="m 141.42187,249.09215 -1.38281,-3.5625 -0.1875,0 c -1.20314,1.51562 -2.44533,2.57031 -3.72656,3.16406 -1.26564,0.57813 -2.92189,0.86719 -4.96875,0.86719 -2.51563,0 -4.50001,-0.71875 -5.95312,-2.15625 -1.43751,-1.4375 -2.15626,-3.48437 -2.15625,-6.14063 -1e-5,-2.78124 0.96874,-4.82811 2.90625,-6.14062 1.95311,-1.32811 4.89061,-2.06249 8.81249,-2.20313 l 4.54688,-0.14062 0,-1.14844 c -2e-5,-2.65623 -1.35939,-3.98435 -4.07813,-3.98437 -2.09376,2e-5 -4.55469,0.63283 -7.38281,1.89843 l -2.36718,-4.82812 c 3.01561,-1.5781 6.35936,-2.36716 10.03124,-2.36719 3.51561,3e-5 6.21092,0.76565 8.08594,2.29688 1.87498,1.53127 2.81248,3.85939 2.8125,6.98437 l 0,17.46094 -4.99219,0 m -2.10937,-12.14063 -2.76563,0.0937 c -2.07813,0.0625 -3.62501,0.43751 -4.64062,1.125 -1.01563,0.68751 -1.52345,1.73439 -1.52344,3.14063 -1e-5,2.01563 1.15624,3.02344 3.46875,3.02344 1.65624,0 2.97655,-0.47656 3.96094,-1.42969 0.99998,-0.95312 1.49998,-2.21874 1.5,-3.79688 l 0,-2.15625" /><path
           inkscape:connector-curvature="0"
           id="path4176"
           d="m 177.21094,249.09215 -7.14844,0 0,-15.30469 c -2e-5,-1.89061 -0.32033,-3.30467 -0.96094,-4.24219 -0.62502,-0.9531 -1.6172,-1.42966 -2.97656,-1.42968 -1.82814,2e-5 -3.15626,0.67189 -3.98438,2.01562 -0.82813,1.34377 -1.24219,3.5547 -1.24218,6.63281 l 0,12.32813 -7.14844,0 0,-26.20313 5.46094,0 0.96093,3.35157 0.39844,0 c 0.70312,-1.20311 1.71874,-2.1406 3.04688,-2.8125 1.32811,-0.68748 2.85154,-1.03123 4.57031,-1.03125 3.92185,2e-5 6.5781,1.28127 7.96875,3.84375 l 0.63281,0 c 0.7031,-1.21873 1.73435,-2.16404 3.09375,-2.83594 1.37497,-0.67185 2.92184,-1.00779 4.64063,-1.00781 2.96871,2e-5 5.2109,0.76565 6.72656,2.29687 1.53121,1.51565 2.29683,3.95315 2.29687,7.3125 l 0,17.08594 -7.17187,0 0,-15.30469 c -4e-5,-1.89061 -0.32035,-3.30467 -0.96094,-4.24219 -0.62503,-0.9531 -1.61722,-1.42966 -2.97656,-1.42968 -1.75003,2e-5 -3.06253,0.62502 -3.9375,1.875 -0.8594,1.25001 -1.28909,3.23439 -1.28906,5.95312 l 0,13.14844" /><path
           inkscape:connector-curvature="0"
           id="path4178"
           d="m 206.60156,235.94371 c -1e-5,2.59376 0.42187,4.5547 1.26563,5.88281 0.85936,1.32813 2.24998,1.9922 4.17187,1.99219 1.90624,1e-5 3.27342,-0.65624 4.10156,-1.96875 0.84374,-1.32812 1.26561,-3.29686 1.26563,-5.90625 -2e-5,-2.59373 -0.42189,-4.53904 -1.26563,-5.83594 -0.84376,-1.29685 -2.22657,-1.94529 -4.14843,-1.94531 -1.90627,2e-5 -3.28126,0.64846 -4.125,1.94531 -0.84376,1.28127 -1.26564,3.22658 -1.26563,5.83594 m 18.11719,0 c -3e-5,4.26563 -1.12503,7.60157 -3.375,10.00781 -2.25002,2.40625 -5.38283,3.60938 -9.39844,3.60938 -2.51563,0 -4.73438,-0.54688 -6.65625,-1.64063 -1.92188,-1.10937 -3.39844,-2.69531 -4.42969,-4.75781 -1.03125,-2.06249 -1.54687,-4.46874 -1.54687,-7.21875 0,-4.28123 1.11718,-7.60935 3.35156,-9.98437 2.23437,-2.37498 5.37499,-3.56248 9.42188,-3.5625 2.51561,2e-5 4.73435,0.5469 6.65625,1.64062 1.92185,1.09377 3.39841,2.66409 4.42968,4.71094 1.03123,2.04689 1.54685,4.44533 1.54688,7.19531" /><path
           inkscape:connector-curvature="0"
           id="path4180"
           d="m 245.25,222.39684 c 0.96873,2e-5 1.77342,0.0703 2.41406,0.21093 l -0.53906,6.70313 c -0.57814,-0.15623 -1.28127,-0.23436 -2.10938,-0.23438 -2.28126,2e-5 -4.06251,0.58596 -5.34375,1.75782 -1.26563,1.17189 -1.89844,2.81251 -1.89843,4.92187 l 0,13.33594 -7.14844,0 0,-26.20313 5.41406,0 1.05469,4.40625 0.35156,0 c 0.81249,-1.46872 1.90624,-2.64841 3.28125,-3.53906 1.39061,-0.90622 2.89842,-1.35935 4.52344,-1.35937" /><path
           inkscape:connector-curvature="0"
           id="path4182"
           d="m 262.38281,227.48277 c -1.51564,2e-5 -2.70313,0.4844 -3.5625,1.45313 -0.85938,0.95314 -1.35157,2.31252 -1.47656,4.07812 l 10.03125,0 c -0.0313,-1.7656 -0.49221,-3.12498 -1.38281,-4.07812 -0.89064,-0.96873 -2.09377,-1.45311 -3.60938,-1.45313 m 1.00781,22.07813 c -4.21876,0 -7.51563,-1.16406 -9.89062,-3.49219 -2.375,-2.32812 -3.5625,-5.62499 -3.5625,-9.89062 0,-4.39061 1.09375,-7.78123 3.28125,-10.17188 2.20312,-2.40622 5.24218,-3.60935 9.11719,-3.60937 3.7031,2e-5 6.58591,1.05471 8.64843,3.16406 2.06248,2.10939 3.09373,5.02345 3.09375,8.74219 l 0,3.46875 -16.89843,0 c 0.0781,2.03125 0.67967,3.61719 1.80468,4.75781 1.12499,1.14063 2.70312,1.71094 4.73438,1.71094 1.57811,0 3.07029,-0.16406 4.47656,-0.49219 1.40623,-0.32812 2.87498,-0.85156 4.40625,-1.57031 l 0,5.53125 c -1.25002,0.625 -2.58596,1.08593 -4.00781,1.38281 -1.42189,0.3125 -3.15627,0.46875 -5.20313,0.46875" /></g><g
         id="flowRoot3930"
         style="font-size:224px;font-style:normal;font-variant:normal;font-weight:normal;font-stretch:normal;line-height:125%;letter-spacing:0px;word-spacing:0px;fill:#ffffff;fill-opacity:1;stroke:none;font-family:Open Sans;-inkscape-font-specification:Open Sans"
         transform="translate(19.333333,-94.389958)"><path
           inkscape:connector-curvature="0"
           id="path4165"
           d="m 322.96875,291.76336 -3.60938,-17.0625 -0.875,0 c -5.97924,7.51042 -11.9584,12.61458 -17.9375,15.3125 -5.90631,2.625 -13.30734,3.93749 -22.20312,3.9375 -11.88545,-10e-6 -21.21878,-3.0625 -28,-9.1875 -6.70835,-6.12499 -10.06251,-14.83852 -10.0625,-26.14063 -1e-5,-24.20827 19.35935,-36.89576 58.07812,-38.0625 l 20.34375,-0.65625 0,-7.4375 c -8e-5,-9.40616 -2.04175,-16.33324 -6.125,-20.78125 -4.01049,-4.52073 -10.46361,-6.78114 -19.35937,-6.78125 -9.98964,1.1e-4 -21.29171,3.0626 -33.90625,9.1875 l -5.57813,-13.89062 c 5.90623,-3.20822 12.35934,-5.72385 19.35938,-7.54688 7.07287,-1.82279 14.14578,-2.73425 21.21875,-2.73437 14.29159,1.2e-4 24.86449,3.17199 31.71875,9.51562 6.92698,6.34386 10.39052,16.51572 10.39062,30.51563 l 0,81.8125 -13.45312,0 m -41.01563,-12.79688 c 11.30203,1e-5 20.16139,-3.09894 26.57813,-9.29687 6.4895,-6.19789 9.73429,-14.87497 9.73437,-26.03125 l 0,-10.82813 -18.15625,0.76563 c -14.43755,0.51047 -24.86462,2.77088 -31.28125,6.78125 -6.34378,3.93754 -9.51565,10.099 -9.51562,18.48437 -3e-5,6.56253 1.96872,11.55731 5.90625,14.98438 4.01038,3.42709 9.5885,5.14063 16.73437,5.14062" /></g><g
         id="flowRoot3898"
         style="font-size:48px;font-style:italic;font-variant:normal;font-weight:normal;font-stretch:normal;line-height:125%;letter-spacing:0px;word-spacing:10px;fill:#000000;fill-opacity:1;stroke:none;font-family:Open Sans;-inkscape-font-specification:Open Sans Italic"
         transform="translate(11.005205,4)"><path
           inkscape:connector-curvature="0"
           id="path4152"
           d="m 31.710937,184.19371 -11.625,0 -5.742187,10.89844 -4.4296875,0 18.7265625,-34.26563 4.078125,0 4.3125,34.26563 -3.984375,0 -1.335938,-10.89844 m -0.421875,-3.65625 -0.820312,-7.00781 c -0.375017,-2.79685 -0.60158,-5.53123 -0.679688,-8.20313 -0.578141,1.37503 -1.210953,2.74222 -1.898437,4.10157 -0.67189,1.35939 -2.6172,5.06252 -5.835938,11.10937 l 9.234375,0" /><path
           inkscape:connector-curvature="0"
           id="path4154"
           d="m 54.257812,168.9359 c 1.437484,2e-5 2.718733,0.39065 3.84375,1.17187 1.124981,0.76565 1.99998,1.87503 2.625,3.32813 l 0.257813,0 1.570312,-4.03125 2.976563,0 -5.460938,25.6875 -3.117187,0 0.609375,-4.89844 -0.1875,0 c -2.79689,3.57813 -5.7422,5.36719 -8.835938,5.36719 -2.171882,0 -3.875005,-0.77344 -5.109375,-2.32031 -1.234377,-1.54688 -1.851564,-3.66406 -1.851562,-6.35157 -2e-6,-3.24999 0.554685,-6.26561 1.664062,-9.04687 1.10937,-2.78123 2.640619,-4.96092 4.59375,-6.53906 1.953115,-1.5781 4.093738,-2.36717 6.421875,-2.36719 m -4.453125,23.36719 c 1.515613,0 3.023424,-0.71875 4.523438,-2.15625 1.499983,-1.45312 2.718732,-3.33593 3.65625,-5.64844 0.93748,-2.32811 1.40623,-4.65624 1.40625,-6.98438 -2e-5,-1.60935 -0.43752,-2.8906 -1.3125,-3.84375 -0.875018,-0.9531 -2.023454,-1.42966 -3.445313,-1.42968 -1.625013,2e-5 -3.140637,0.67189 -4.546875,2.01562 -1.390634,1.34377 -2.484383,3.16408 -3.28125,5.46094 -0.796881,2.29689 -1.195318,4.71876 -1.195312,7.26562 -6e-6,1.78126 0.367181,3.1172 1.101562,4.00782 0.734367,0.875 1.765616,1.3125 3.09375,1.3125" /><path
           inkscape:connector-curvature="0"
           id="path4156"
           d="m 108.08594,195.09215 -17.226565,0 7.242187,-34.26563 17.226568,0 -0.75,3.58594 -13.26563,0 -2.296875,10.99219 12.351565,0 -0.67969,3.5625 -12.398438,0 -2.671875,12.5625 13.242193,0 -0.77344,3.5625" /><path
           inkscape:connector-curvature="0"
           id="path4158"
           d="m 124.9375,195.5609 c -2.87501,0 -5.13282,-0.85156 -6.77344,-2.55469 -1.64063,-1.70312 -2.46094,-4.06249 -2.46093,-7.07812 -1e-5,-2.93749 0.57812,-5.74999 1.73437,-8.4375 1.17187,-2.70311 2.71874,-4.80467 4.64063,-6.30469 1.92186,-1.49998 4.03904,-2.24998 6.35156,-2.25 2.39061,2e-5 4.18748,0.52346 5.39062,1.57031 1.20311,1.03127 1.80467,2.47658 1.80469,4.33594 -2e-5,2.81252 -1.2969,5.02345 -3.89063,6.63281 -2.59376,1.59376 -6.30469,2.39064 -11.13281,2.39063 l -0.77343,0 -0.0937,1.875 c -1e-5,2.04688 0.47655,3.64844 1.42968,4.80468 0.96874,1.14063 2.46093,1.71094 4.47657,1.71094 0.98436,0 1.99217,-0.14062 3.02343,-0.42187 1.04686,-0.28125 2.34373,-0.79688 3.89063,-1.54688 l 0,3.42188 c -1.46877,0.6875 -2.76564,1.16406 -3.89063,1.42968 -1.12501,0.28125 -2.3672,0.42188 -3.72656,0.42188 m 3.25781,-23.27344 c -1.60939,2e-5 -3.12501,0.7344 -4.54687,2.20313 -1.40626,1.46876 -2.48439,3.50782 -3.23438,6.11718 l 0.28125,0 c 3.56249,2e-5 6.28905,-0.46092 8.17969,-1.38281 1.90623,-0.93748 2.85936,-2.28904 2.85937,-4.05469 -1e-5,-0.8281 -0.28908,-1.5156 -0.86718,-2.0625 -0.56252,-0.54685 -1.45314,-0.82029 -2.67188,-0.82031" /><path
           inkscape:connector-curvature="0"
           id="path4160"
           d="m 168.61719,180.84215 -3.02344,14.25 -3.98438,0 7.24219,-34.26563 7.5,0 c 6.96873,4e-5 10.4531,2.85941 10.45313,8.57813 -3e-5,5.43752 -2.87503,8.94533 -8.625,10.52344 l 5.60156,15.16406 -4.35938,0 -4.89843,-14.25 -5.90625,0 m 3.44531,-16.52344 c -1.59376,7.71877 -2.50001,12.08596 -2.71875,13.10156 l 3.9375,0 c 3.01561,2e-5 5.33592,-0.66404 6.96094,-1.99218 1.62498,-1.32811 2.43747,-3.23436 2.4375,-5.71875 -3e-5,-1.8906 -0.53128,-3.25779 -1.59375,-4.10157 -1.0469,-0.85934 -2.75783,-1.28903 -5.13282,-1.28906 l -3.89062,0" /><path
           inkscape:connector-curvature="0"
           id="path4162"
           d="m 204.5,168.9359 c 1.07811,2e-5 2.01561,0.1094 2.8125,0.32812 l -0.84375,3.51563 c -0.82814,-0.2031 -1.64846,-0.30467 -2.46094,-0.30469 -1.42189,2e-5 -2.75782,0.46877 -4.00781,1.40625 -1.23439,0.93752 -2.32032,2.24221 -3.25781,3.91406 -0.92189,1.65627 -1.60157,3.50002 -2.03907,5.53125 l -2.50781,11.76563 -3.9375,0 5.48438,-25.6875 3.25781,0 -0.51563,4.75781 0.23438,0 c 1.12499,-1.48435 2.05468,-2.54685 2.78906,-3.1875 0.73436,-0.65623 1.49999,-1.15622 2.29688,-1.5 0.81248,-0.35935 1.71092,-0.53904 2.69531,-0.53906" /></g><g
         id="flowRoot3865"
         style="font-size:48px;font-style:normal;font-variant:normal;font-weight:normal;font-stretch:normal;line-height:125%;letter-spacing:0px;word-spacing:8px;fill:#000000;fill-opacity:1;stroke:none;font-family:Open Sans;-inkscape-font-specification:Open Sans"
         transform="translate(4.2630175,2.3730367)"><path
           inkscape:connector-curvature="0"
           id="path4139"
           d="m 42.90625,129.7484 -4.265625,-10.89844 -13.734375,0 -4.21875,10.89844 -4.03125,0 13.546875,-34.406252 3.351562,0 13.476563,34.406252 -4.125,0 m -5.507813,-14.48438 -3.984375,-10.61718 c -0.515641,-1.34373 -1.04689,-2.99216 -1.59375,-4.945317 -0.343764,1.500027 -0.835951,3.148467 -1.476562,4.945317 l -4.03125,10.61718 11.085937,0" /><path
           inkscape:connector-curvature="0"
           id="path4141"
           d="m 66.953125,129.7484 -0.773438,-3.65625 -0.1875,0 c -1.281267,1.60937 -2.562516,2.70312 -3.84375,3.28125 -1.265638,0.5625 -2.851574,0.84375 -4.757812,0.84375 -2.546883,0 -4.546881,-0.65625 -6,-1.96875 -1.437503,-1.3125 -2.156252,-3.17969 -2.15625,-5.60156 -2e-6,-5.18749 4.148431,-7.90624 12.445312,-8.15625 l 4.359375,-0.14063 0,-1.59375 c -1.9e-5,-2.01561 -0.437518,-3.49998 -1.3125,-4.45312 -0.859391,-0.96873 -2.242202,-1.45311 -4.148437,-1.45313 -2.140636,2e-5 -4.562509,0.65627 -7.265625,1.96875 l -1.195313,-2.97656 c 1.265619,-0.68748 2.64843,-1.22654 4.148438,-1.61719 1.515614,-0.3906 3.031238,-0.58591 4.546875,-0.58594 3.062483,3e-5 5.328106,0.67972 6.796875,2.03907 1.484353,1.35939 2.22654,3.53908 2.226562,6.53906 l 0,17.53125 -2.882812,0 m -8.789063,-2.74219 c 2.421862,0 4.320298,-0.66406 5.695313,-1.99219 1.390607,-1.32812 2.085919,-3.18749 2.085937,-5.57812 l 0,-2.32031 -3.890625,0.16406 c -3.093761,0.10939 -5.328134,0.59376 -6.703125,1.45312 -1.359381,0.84376 -2.039068,2.16407 -2.039062,3.96094 -6e-6,1.40626 0.421868,2.47657 1.265625,3.21094 0.859367,0.73438 2.054678,1.10156 3.585937,1.10156" /><path
           inkscape:connector-curvature="0"
           id="path4143"
           d="m 118.03125,129.7484 -19.101563,0 0,-34.265627 19.101563,0 0,3.539062 -15.11719,0 0,11.039065 14.20313,0 0,3.51562 -14.20313,0 0,12.60938 15.11719,0 0,3.5625" /><path
           inkscape:connector-curvature="0"
           id="path4145"
           d="m 135.91406,130.21715 c -3.79688,0 -6.79688,-1.15625 -9,-3.46875 -2.1875,-2.3125 -3.28125,-5.52343 -3.28125,-9.63281 0,-4.14061 1.01562,-7.42967 3.04688,-9.86719 2.04686,-2.43748 4.78905,-3.65623 8.22656,-3.65625 3.21873,2e-5 5.76561,1.06252 7.64062,3.1875 1.87498,2.10939 2.81248,4.89845 2.8125,8.36719 l 0,2.46093 -17.69531,0 c 0.0781,3.01564 0.83593,5.3047 2.27344,6.86719 1.45311,1.5625 3.49218,2.34375 6.11719,2.34375 2.7656,0 5.49998,-0.57812 8.20312,-1.73437 l 0,3.46875 c -1.37502,0.59375 -2.67971,1.01562 -3.91406,1.26562 -1.21877,0.26562 -2.69533,0.39844 -4.42969,0.39844 m -1.05469,-23.36719 c -2.06251,2e-5 -3.71094,0.6719 -4.94531,2.01563 -1.21876,1.34376 -1.9375,3.20314 -2.15625,5.57812 l 13.42969,0 c -2e-5,-2.45311 -0.54689,-4.32811 -1.64063,-5.625 -1.09376,-1.31248 -2.65626,-1.96873 -4.6875,-1.96875" /><path
           inkscape:connector-curvature="0"
           id="path4147"
           d="m 177.00781,115.4984 0,14.25 -3.98437,0 0,-34.265627 9.39843,0 c 4.20311,3.4e-5 7.30467,0.804721 9.30469,2.414062 2.0156,1.609405 3.02341,4.031275 3.02344,7.265625 -3e-5,4.53127 -2.2969,7.59377 -6.89063,9.1875 l 9.30469,15.39844 -4.71094,0 -8.29687,-14.25 -7.14844,0 m 0,-3.42188 5.46094,0 c 2.81248,2e-5 4.87498,-0.55467 6.1875,-1.66406 1.31248,-1.12498 1.96873,-2.80467 1.96875,-5.03906 -2e-5,-2.2656 -0.6719,-3.89841 -2.01563,-4.89844 -1.32814,-0.99997 -3.46876,-1.499969 -6.42187,-1.5 l -5.17969,0 0,13.10156" /><path
           inkscape:connector-curvature="0"
           id="path4149"
           d="m 213.875,103.59215 c 1.14061,2e-5 2.16404,0.0938 3.07031,0.28125 l -0.53906,3.60937 c -1.06252,-0.23435 -2.00002,-0.35154 -2.8125,-0.35156 -2.07814,2e-5 -3.85939,0.84377 -5.34375,2.53125 -1.46876,1.68752 -2.20313,3.78908 -2.20313,6.30469 l 0,13.78125 -3.89062,0 0,-25.6875 3.21094,0 0.44531,4.75781 0.1875,0 c 0.95312,-1.67185 2.10155,-2.96091 3.44531,-3.86719 1.34374,-0.90622 2.8203,-1.35935 4.42969,-1.35937" /></g><g
         id="flowRoot3857"
         style="font-size:48px;font-style:normal;font-variant:normal;font-weight:normal;font-stretch:normal;line-height:125%;letter-spacing:0px;word-spacing:0px;fill:#000000;fill-opacity:1;stroke:none;font-family:Open Sans;-inkscape-font-specification:Open Sans"
         transform="translate(-114.66667,4)"><path
           inkscape:connector-curvature="0"
           id="path4122"
           d="m 167.10937,38.56871 c -3e-5,5.484387 -1.39065,9.796883 -4.17187,12.9375 -2.76565,3.140626 -6.61721,4.710937 -11.55469,4.710938 -5.04689,-1e-6 -8.94532,-1.539062 -11.69531,-4.617188 -2.73438,-3.093743 -4.10157,-7.453113 -4.10156,-13.078125 -1e-5,-5.578102 1.37499,-9.89841 4.125,-12.960937 2.74999,-3.078092 6.65623,-4.617153 11.71875,-4.617188 4.92185,3.5e-5 8.76559,1.562533 11.53125,4.6875 2.76559,3.125027 4.1484,7.437523 4.14843,12.9375 m -27.30468,0 c -1e-5,4.640638 0.98436,8.164072 2.95312,10.570313 1.98437,2.390629 4.85936,3.58594 8.625,3.585937 3.79685,3e-6 6.66404,-1.195308 8.60156,-3.585937 1.93748,-2.390616 2.90622,-5.91405 2.90625,-10.570313 -3e-5,-4.609353 -0.96877,-8.101537 -2.90625,-10.476562 -1.9219,-2.390595 -4.77346,-3.585907 -8.55468,-3.585938 -3.79689,3.1e-5 -6.68751,1.203155 -8.67188,3.609375 -1.96876,2.39065 -2.95313,5.875022 -2.95312,10.453125" /><path
           inkscape:connector-curvature="0"
           id="path4124"
           d="m 186.14062,56.217148 c -1.67188,-1e-6 -3.20313,-0.304688 -4.59375,-0.914063 -1.37501,-0.624999 -2.53125,-1.578123 -3.46875,-2.859375 l -0.28125,0 c 0.1875,1.500002 0.28125,2.921876 0.28125,4.265625 l 0,10.570313 -3.89062,0 0,-37.21875 3.16406,0 0.53906,3.515625 0.1875,0 c 1,-1.406227 2.16406,-2.421851 3.49219,-3.046875 1.32811,-0.624974 2.85155,-0.937474 4.57031,-0.9375 3.40624,2.6e-5 6.03123,1.164087 7.875,3.492187 1.85935,2.328146 2.78904,5.593767 2.78907,9.796875 -3e-5,4.218759 -0.94534,7.500006 -2.83594,9.84375 -1.87502,2.328126 -4.48439,3.492187 -7.82813,3.492188 m -0.5625,-23.320313 c -2.62501,2.3e-5 -4.52344,0.726585 -5.69531,2.179688 -1.17188,1.453144 -1.77344,3.765642 -1.80469,6.9375 l 0,0.867187 c 0,3.609384 0.60156,6.195319 1.80469,7.757813 1.20312,1.546878 3.1328,2.320315 5.78906,2.320312 2.21874,3e-6 3.95311,-0.898434 5.20313,-2.695312 1.2656,-1.796868 1.89841,-4.273428 1.89844,-7.429688 -3e-5,-3.203109 -0.63284,-5.656231 -1.89844,-7.359375 -1.25002,-1.718728 -3.01564,-2.578102 -5.29688,-2.578125" /><path
           inkscape:connector-curvature="0"
           id="path4126"
           d="m 214.47656,56.217148 c -3.79688,-1e-6 -6.79688,-1.15625 -9,-3.46875 -2.1875,-2.312495 -3.28125,-5.523429 -3.28125,-9.632813 0,-4.140608 1.01562,-7.429667 3.04688,-9.867187 2.04686,-2.437475 4.78905,-3.656224 8.22656,-3.65625 3.21873,2.6e-5 5.76561,1.062525 7.64062,3.1875 1.87498,2.109396 2.81248,4.898455 2.8125,8.367187 l 0,2.460938 -17.69531,0 c 0.0781,3.015634 0.83593,5.304694 2.27344,6.867187 1.45311,1.562504 3.49218,2.343753 6.11719,2.34375 2.7656,3e-6 5.49998,-0.578121 8.20312,-1.734375 l 0,3.46875 c -1.37502,0.593751 -2.67971,1.015625 -3.91406,1.265625 -1.21877,0.265625 -2.69533,0.398437 -4.42969,0.398438 M 213.42187,32.84996 c -2.06251,2.3e-5 -3.71094,0.671897 -4.94531,2.015625 -1.21876,1.34377 -1.9375,3.203143 -2.15625,5.578125 l 13.42969,0 c -2e-5,-2.453107 -0.54689,-4.328105 -1.64063,-5.625 -1.09376,-1.312478 -2.65626,-1.968727 -4.6875,-1.96875" /><path
           inkscape:connector-curvature="0"
           id="path4128"
           d="m 248.10937,55.748398 0,-16.617188 c -2e-5,-2.093731 -0.47658,-3.65623 -1.42968,-4.6875 -0.95315,-1.031227 -2.44533,-1.546852 -4.47657,-1.546875 -2.68751,2.3e-5 -4.65626,0.726585 -5.90625,2.179688 -1.25,1.453144 -1.875,3.851579 -1.875,7.195312 l 0,13.476563 -3.89062,0 0,-25.6875 3.16406,0 0.63281,3.515625 0.1875,0 c 0.79687,-1.265602 1.91406,-2.242163 3.35157,-2.929688 1.43748,-0.703099 3.03905,-1.054661 4.80468,-1.054687 3.09374,2.6e-5 5.42186,0.750025 6.98438,2.25 1.56248,1.484397 2.34372,3.867207 2.34375,7.148437 l 0,16.757813 -3.89063,0" /><path
           inkscape:connector-curvature="0"
           id="path4130"
           d="m 292.35937,46.63121 c -2e-5,3.015631 -1.09377,5.367191 -3.28125,7.054688 -2.18751,1.6875 -5.15626,2.531249 -8.90625,2.53125 -4.0625,-1e-6 -7.1875,-0.523438 -9.375,-1.570313 l 0,-3.84375 c 1.40625,0.593755 2.9375,1.062504 4.59375,1.40625 1.65625,0.343753 3.29687,0.515628 4.92188,0.515625 2.65624,3e-6 4.65623,-0.499996 6,-1.5 1.34373,-1.015619 2.0156,-2.421868 2.01562,-4.21875 -2e-5,-1.18749 -0.2422,-2.156239 -0.72656,-2.90625 -0.46877,-0.765612 -1.26564,-1.468737 -2.39062,-2.109375 -1.10939,-0.64061 -2.8047,-1.367172 -5.08594,-2.179687 -3.18751,-1.140608 -5.46876,-2.492169 -6.84375,-4.054688 -1.35938,-1.562478 -2.03907,-3.601539 -2.03906,-6.117187 -10e-6,-2.640597 0.99218,-4.742157 2.97656,-6.304688 1.98437,-1.562466 4.60936,-2.343715 7.875,-2.34375 3.40623,3.5e-5 6.53904,0.625034 9.39844,1.875 l -1.24219,3.46875 c -2.82814,-1.187469 -5.57814,-1.781219 -8.25,-1.78125 -2.10939,3.1e-5 -3.75782,0.453156 -4.94531,1.359375 -1.18751,0.906279 -1.78126,2.16409 -1.78125,3.773438 -10e-6,1.187525 0.21874,2.164086 0.65625,2.929687 0.43749,0.750023 1.17186,1.445334 2.20312,2.085938 1.04687,0.62502 2.64062,1.320332 4.78125,2.085937 3.59373,1.281268 6.06248,2.656267 7.40625,4.125 1.35935,1.468764 2.03904,3.375012 2.03906,5.71875" /><path
           inkscape:connector-curvature="0"
           id="path4132"
           d="m 314.57812,55.748398 -0.77343,-3.65625 -0.1875,0 c -1.28127,1.609377 -2.56252,2.703126 -3.84375,3.28125 -1.26564,0.5625 -2.85158,0.843749 -4.75782,0.84375 -2.54688,-1e-6 -4.54688,-0.65625 -6,-1.96875 -1.4375,-1.312497 -2.15625,-3.179683 -2.15625,-5.601563 0,-5.187487 4.14844,-7.906235 12.44532,-8.15625 l 4.35937,-0.140625 0,-1.59375 c -2e-5,-2.015606 -0.43752,-3.499979 -1.3125,-4.453125 -0.85939,-0.968727 -2.2422,-1.453102 -4.14844,-1.453125 -2.14063,2.3e-5 -4.5625,0.656272 -7.26562,1.96875 l -1.19531,-2.976562 c 1.26562,-0.687476 2.64843,-1.226538 4.14843,-1.617188 1.51562,-0.390599 3.03124,-0.585911 4.54688,-0.585937 3.06248,2.6e-5 5.32811,0.679713 6.79687,2.039062 1.48436,1.359398 2.22654,3.539083 2.22657,6.539063 l 0,17.53125 -2.88282,0 m -8.78906,-2.742188 c 2.42186,3e-6 4.3203,-0.664059 5.69531,-1.992187 1.39061,-1.328119 2.08592,-3.187492 2.08594,-5.578125 l 0,-2.320313 -3.89062,0.164063 c -3.09376,0.109387 -5.32814,0.593762 -6.70313,1.453125 -1.35938,0.84376 -2.03907,2.164071 -2.03906,3.960937 -10e-6,1.406256 0.42187,2.476567 1.26562,3.210938 0.85937,0.734378 2.05468,1.101565 3.58594,1.101562" /><path
           inkscape:connector-curvature="0"
           id="path4134"
           d="m 343.07812,55.748398 0,-16.617188 c -2e-5,-2.093731 -0.47658,-3.65623 -1.42968,-4.6875 -0.95315,-1.031227 -2.44533,-1.546852 -4.47657,-1.546875 -2.68751,2.3e-5 -4.65626,0.726585 -5.90625,2.179688 -1.25,1.453144 -1.875,3.851579 -1.875,7.195312 l 0,13.476563 -3.89062,0 0,-25.6875 3.16406,0 0.63281,3.515625 0.1875,0 c 0.79687,-1.265602 1.91406,-2.242163 3.35157,-2.929688 1.43748,-0.703099 3.03905,-1.054661 4.80468,-1.054687 3.09374,2.6e-5 5.42186,0.750025 6.98438,2.25 1.56248,1.484397 2.34372,3.867207 2.34375,7.148437 l 0,16.757813 -3.89063,0" /><path
           inkscape:connector-curvature="0"
           id="path4136"
           d="m 371.50781,48.740585 c -2e-5,2.39063 -0.89064,4.234378 -2.67187,5.53125 -1.78127,1.296875 -4.28127,1.945312 -7.5,1.945313 -3.40626,-1e-6 -6.06251,-0.539063 -7.96875,-1.617188 l 0,-3.609375 c 1.23437,0.625004 2.55468,1.117191 3.96093,1.476563 1.42187,0.359378 2.78906,0.539065 4.10157,0.539062 2.03123,3e-6 3.59373,-0.320309 4.6875,-0.960937 1.09373,-0.656246 1.64061,-1.648432 1.64062,-2.976563 -1e-5,-0.999992 -0.43751,-1.851554 -1.3125,-2.554687 -0.85939,-0.71874 -2.54689,-1.562489 -5.0625,-2.53125 -2.39063,-0.890613 -4.09375,-1.664049 -5.10937,-2.320313 -1.00001,-0.67186 -1.75001,-1.429672 -2.25,-2.273437 -0.48438,-0.843733 -0.72657,-1.851545 -0.72657,-3.023438 0,-2.093728 0.85156,-3.742164 2.55469,-4.945312 1.70312,-1.218725 4.03906,-1.828099 7.00781,-1.828125 2.76562,2.6e-5 5.46874,0.562525 8.10938,1.6875 l -1.38281,3.164062 c -2.57814,-1.062477 -4.91408,-1.593727 -7.00782,-1.59375 -1.84375,2.3e-5 -3.23438,0.289085 -4.17187,0.867188 -0.93751,0.578146 -1.40626,1.37502 -1.40625,2.390625 -10e-6,0.687519 0.17187,1.273456 0.51562,1.757812 0.35937,0.484393 0.92968,0.94533 1.71094,1.382813 0.78124,0.437516 2.28124,1.070328 4.5,1.898437 3.04686,1.109389 5.10155,2.226575 6.16406,3.351563 1.07811,1.12501 1.61717,2.539071 1.61719,4.242187" /></g></g><g
       id="g5116"><g
         id="flowRoot3849"
         style="font-size:40px;font-style:normal;font-variant:normal;font-weight:normal;font-stretch:normal;line-height:125%;letter-spacing:2px;word-spacing:0px;fill:#ffffff;fill-opacity:1;stroke:none;font-family:Open Sans;-inkscape-font-specification:Open Sans"
         transform="translate(55.166017,-1.365594)"><path
           inkscape:connector-curvature="0"
           id="path4239"
           d="m 85.535156,435.5833 c -2.1e-5,4.93491 -0.78127,8.6198 -2.34375,11.05469 -1.549496,2.43489 -3.925796,3.65234 -7.128906,3.65234 -3.072925,0 -5.410162,-1.24349 -7.011719,-3.73047 -1.601565,-2.49999 -2.402345,-6.15884 -2.402344,-10.97656 -10e-7,-4.97394 0.774737,-8.66534 2.324219,-11.07422 1.549474,-2.40882 3.912752,-3.61325 7.089844,-3.61328 3.098944,3e-5 5.449202,1.25654 7.050781,3.76953 1.614564,2.51304 2.421854,6.15236 2.421875,10.91797 m -15.605469,0 c -5e-6,4.15366 0.488276,7.181 1.464844,9.08203 0.976555,1.88803 2.532543,2.83204 4.667969,2.83203 2.161445,10e-6 3.723943,-0.95703 4.6875,-2.87109 0.976545,-1.92708 1.464826,-4.9414 1.464844,-9.04297 -1.8e-5,-4.10154 -0.488299,-7.10284 -1.464844,-9.00391 -0.963557,-1.91403 -2.526055,-2.87106 -4.6875,-2.87109 -2.135426,3e-5 -3.691414,0.94404 -4.667969,2.83203 -0.976568,1.87502 -1.464849,4.88934 -1.464844,9.04297" /><path
           inkscape:connector-curvature="0"
           id="path4241"
           d="m 103.51172,449.89971 -3.16406,0 0,-20.35157 c -1e-5,-1.69268 0.0521,-3.29424 0.15625,-4.80468 -0.27345,0.27346 -0.579441,0.55992 -0.917973,0.85937 -0.338551,0.2995 -1.888028,1.56903 -4.648437,3.8086 l -1.71875,-2.22657 7.55859,-5.83984 2.73438,0 0,28.55469" /><path
           inkscape:connector-curvature="0"
           id="path4243"
           d="m 135.16016,449.89971 -18.76953,0 0,-2.79297 7.51953,-7.5586 c 2.29165,-2.31769 3.80207,-3.97134 4.53125,-4.96093 0.72915,-0.98957 1.27602,-1.95311 1.64062,-2.89063 0.36457,-0.93748 0.54686,-1.94659 0.54688,-3.02734 -2e-5,-1.52342 -0.46226,-2.72784 -1.38672,-3.61328 -0.9245,-0.89842 -2.20705,-1.34763 -3.84766,-1.34766 -1.1849,3e-5 -2.31121,0.19534 -3.3789,0.58594 -1.0547,0.39065 -2.23308,1.10028 -3.53516,2.1289 l -1.71875,-2.20703 c 2.6302,-2.18747 5.49478,-3.28122 8.59375,-3.28125 2.68228,3e-5 4.78514,0.69014 6.30859,2.07032 1.52342,1.36721 2.28514,3.20965 2.28516,5.52734 -2e-5,1.80991 -0.50783,3.60028 -1.52344,5.37109 -1.01564,1.77085 -2.91668,4.01043 -5.70312,6.71875 l -6.25,6.11328 0,0.15625 14.6875,0 0,3.00782" /><path
           inkscape:connector-curvature="0"
           id="path4245"
           d="m 158.97656,428.06377 c -2e-5,1.82294 -0.51434,3.31382 -1.54297,4.47266 -1.01564,1.15887 -2.46095,1.9336 -4.33593,2.32421 l 0,0.15625 c 2.29165,0.28648 3.99086,1.01564 5.09765,2.1875 1.10675,1.17189 1.66014,2.70835 1.66016,4.60938 -2e-5,2.72136 -0.94403,4.81771 -2.83203,6.28906 -1.88804,1.45834 -4.57033,2.1875 -8.04688,2.1875 -1.51042,0 -2.89714,-0.11719 -4.16015,-0.35156 -1.25001,-0.22136 -2.46745,-0.61849 -3.65235,-1.19141 l 0,-3.08593 c 1.23698,0.61198 2.55208,1.08073 3.94531,1.40625 1.40625,0.3125 2.73437,0.46875 3.98438,0.46875 4.93488,0 7.40233,-1.93359 7.40234,-5.80079 -1e-5,-3.46353 -2.72136,-5.1953 -8.16406,-5.19531 l -2.8125,0 0,-2.79297 2.85156,0 c 2.22655,2e-5 3.99088,-0.48826 5.29297,-1.46484 1.30207,-0.98957 1.95311,-2.35675 1.95313,-4.10156 -2e-5,-1.39321 -0.48179,-2.48696 -1.44532,-3.28125 -0.95053,-0.79425 -2.2461,-1.19138 -3.88671,-1.19141 -1.25001,3e-5 -2.4284,0.1693 -3.53516,0.50781 -1.10678,0.33857 -2.3698,0.96357 -3.78906,1.875 l -1.64063,-2.1875 c 1.17187,-0.92445 2.51953,-1.64711 4.04297,-2.16797 1.53645,-0.53382 3.15103,-0.80075 4.84375,-0.80078 2.77343,3e-5 4.92837,0.63805 6.46484,1.91407 1.53644,1.26304 2.30467,3.00132 2.30469,5.21484" /><path
           inkscape:connector-curvature="0"
           id="path4247"
           d="m 186.28906,443.33721 -4.23828,0 0,6.5625 -3.10547,0 0,-6.5625 -13.88672,0 0,-2.83203 13.55469,-19.31641 3.4375,0 0,19.19922 4.23828,0 0,2.94922 m -7.34375,-2.94922 0,-9.49219 c -1e-5,-1.86196 0.0651,-3.96482 0.19531,-6.30859 l -0.15625,0 c -0.62501,1.25002 -1.21095,2.28518 -1.75781,3.10547 l -8.92578,12.69531 10.64453,0" /><path
           inkscape:connector-curvature="0"
           id="path4249"
           d="m 199.98828,432.4583 c 3.0078,2e-5 5.37108,0.74871 7.08984,2.24609 1.73176,1.48439 2.59764,3.52215 2.59766,6.11329 -2e-5,2.95573 -0.94403,5.27344 -2.83203,6.95312 -1.87502,1.67969 -4.46616,2.51953 -7.77344,2.51953 -3.21615,0 -5.67057,-0.51432 -7.36328,-1.54297 l 0,-3.125 c 0.91146,0.58594 2.04427,1.04818 3.39844,1.38672 1.35416,0.32552 2.68879,0.48829 4.0039,0.48828 2.29166,10e-6 4.069,-0.54036 5.33204,-1.62109 1.27602,-1.08073 1.91404,-2.64322 1.91406,-4.6875 -2e-5,-3.98436 -2.44142,-5.97655 -7.32422,-5.97656 -1.23699,10e-6 -2.89063,0.18881 -4.96094,0.5664 l -1.67969,-1.07422 1.07422,-13.35937 14.19922,0 0,2.98828 -11.42578,0 -0.72266,8.57422 c 1.49739,-0.29946 2.98828,-0.4492 4.47266,-0.44922" /><path
           inkscape:connector-curvature="0"
           id="path4251"
           d="m 216.28516,437.69268 c -1e-5,-5.61197 1.08723,-9.80467 3.26171,-12.57813 2.1875,-2.78643 5.41666,-4.17966 9.6875,-4.17969 1.47134,3e-5 2.6302,0.12373 3.47657,0.3711 l 0,2.79297 c -1.00262,-0.3255 -2.14846,-0.48826 -3.4375,-0.48829 -3.05991,3e-5 -5.39715,0.95706 -7.01172,2.8711 -1.61459,1.90106 -2.50001,4.89585 -2.65625,8.98437 l 0.23437,0 c 1.43229,-2.23956 3.69791,-3.35935 6.79688,-3.35937 2.56509,2e-5 4.58331,0.77475 6.05469,2.32422 1.48435,1.54949 2.22654,3.65235 2.22656,6.30859 -2e-5,2.96876 -0.81382,5.30599 -2.44141,7.01172 -1.6146,1.69271 -3.8021,2.53906 -6.5625,2.53906 -2.95574,0 -5.29948,-1.10677 -7.03125,-3.32031 -1.73177,-2.22656 -2.59766,-5.319 -2.59765,-9.27734 m 9.58984,9.84375 c 1.84894,0 3.28123,-0.57943 4.29687,-1.73829 1.02863,-1.17187 1.54296,-2.85806 1.54297,-5.05859 -1e-5,-1.88801 -0.47527,-3.37238 -1.42578,-4.45312 -0.95053,-1.08072 -2.3698,-1.62108 -4.25781,-1.6211 -1.17189,2e-5 -2.2461,0.2409 -3.22266,0.72266 -0.97657,0.48178 -1.75782,1.14584 -2.34375,1.99219 -0.57292,0.84636 -0.85938,1.72527 -0.85937,2.63671 -1e-5,1.34116 0.26041,2.59116 0.78125,3.75 0.52083,1.15886 1.2565,2.07683 2.20703,2.75391 0.96353,0.67709 2.05728,1.01563 3.28125,1.01563" /><path
           inkscape:connector-curvature="0"
           id="path4253"
           d="m 244.45703,449.89971 11.83594,-25.56641 -15.56641,0 0,-2.98828 19.00391,0 0,2.59766 -11.67969,25.95703 -3.59375,0" /><path
           inkscape:connector-curvature="0"
           id="path4255"
           d="m 275.1875,420.93486 c 2.60415,3e-5 4.66795,0.6055 6.19141,1.81641 1.52341,1.21096 2.28513,2.88414 2.28515,5.01953 -2e-5,1.40627 -0.43621,2.68882 -1.30859,3.84766 -0.87241,1.15887 -2.26564,2.21355 -4.17969,3.16406 2.31769,1.10678 3.96483,2.27215 4.94141,3.49609 0.97654,1.21095 1.46482,2.6172 1.46484,4.21875 -2e-5,2.3698 -0.82684,4.26433 -2.48047,5.6836 -1.65366,1.40625 -3.91928,2.10937 -6.79687,2.10937 -3.04689,0 -5.39063,-0.66406 -7.03125,-1.99219 -1.64063,-1.34114 -2.46094,-3.23567 -2.46094,-5.68359 0,-3.26822 1.99218,-5.81379 5.97656,-7.63672 -1.79688,-1.01561 -3.08594,-2.10936 -3.86719,-3.28125 -0.78125,-1.18488 -1.17187,-2.50649 -1.17187,-3.96484 0,-2.07029 0.76172,-3.71742 2.28516,-4.94141 1.53645,-1.23695 3.58723,-1.85544 6.15234,-1.85547 m -6.17188,21.75782 c 0,1.5625 0.54036,2.77995 1.6211,3.65234 1.09374,0.8724 2.62369,1.30859 4.58984,1.30859 1.94009,0 3.45051,-0.45572 4.53125,-1.36718 1.08071,-0.91146 1.62108,-2.16146 1.6211,-3.75 -2e-5,-1.26302 -0.50783,-2.38281 -1.52344,-3.35938 -1.01564,-0.98957 -2.78647,-1.9466 -5.3125,-2.87109 -1.94011,0.83334 -3.34636,1.75782 -4.21875,2.77343 -0.8724,1.00262 -1.3086,2.20704 -1.3086,3.61329 m 6.13282,-19.1211 c -1.62762,3e-5 -2.90366,0.39065 -3.82813,1.17188 -0.92448,0.78127 -1.38672,1.82294 -1.38672,3.125 0,1.19793 0.38411,2.22658 1.15235,3.08593 0.76822,0.8594 2.18749,1.71877 4.25781,2.57813 1.86197,-0.78123 3.17707,-1.62108 3.94531,-2.51953 0.78124,-0.89842 1.17186,-1.9466 1.17188,-3.14453 -2e-5,-1.31508 -0.47528,-2.35675 -1.42578,-3.125 -0.93752,-0.78123 -2.23309,-1.17185 -3.88672,-1.17188" /><path
           inkscape:connector-curvature="0"
           id="path4257"
           d="m 309.39453,433.53252 c -2e-5,11.17188 -4.32293,16.75781 -12.96875,16.75781 -1.51042,0 -2.70834,-0.13021 -3.59375,-0.39062 l 0,-2.79297 c 1.04166,0.33854 2.22656,0.50781 3.55469,0.50781 3.12499,0 5.48176,-0.96354 7.07031,-2.89062 1.60155,-1.9401 2.47394,-4.90885 2.61719,-8.90625 l -0.23438,0 c -0.71616,1.08074 -1.66668,1.90756 -2.85156,2.48046 -1.18491,0.55991 -2.51954,0.83986 -4.00391,0.83985 -2.52604,10e-6 -4.53125,-0.7552 -6.01562,-2.26563 -1.48438,-1.5104 -2.22656,-3.61977 -2.22656,-6.32812 0,-2.96873 0.82682,-5.31248 2.48047,-7.03125 1.66666,-1.71872 3.85415,-2.5781 6.5625,-2.57813 1.94009,3e-5 3.63279,0.50133 5.07812,1.50391 1.45832,0.98961 2.57811,2.44143 3.35938,4.35547 0.78123,1.90106 1.17185,4.14715 1.17187,6.73828 m -9.60937,-9.82422 c -1.86199,3e-5 -3.30079,0.59898 -4.31641,1.79688 -1.01563,1.19794 -1.52344,2.8646 -1.52344,5 0,1.87501 0.46875,3.35288 1.40625,4.43359 0.93749,1.06772 2.36327,1.60157 4.27735,1.60156 1.18488,1e-5 2.27212,-0.24087 3.26171,-0.72265 1.00259,-0.48176 1.79035,-1.13931 2.36329,-1.97266 0.5729,-0.83332 0.85935,-1.70571 0.85937,-2.61719 -2e-5,-1.36717 -0.26694,-2.63019 -0.80078,-3.78906 -0.53387,-1.15883 -1.28257,-2.07029 -2.24609,-2.73438 -0.95054,-0.66403 -2.04429,-0.99606 -3.28125,-0.99609" /></g><g
         id="flowRoot3065"
         style="font-size:36px;font-style:normal;font-variant:normal;font-weight:normal;font-stretch:normal;line-height:125%;letter-spacing:7px;word-spacing:0px;fill:#000000;fill-opacity:1;stroke:none;font-family:Open Sans;-inkscape-font-specification:Open Sans"
         transform="translate(14.144532,-1.3521363)"><path
           inkscape:connector-curvature="0"
           id="path4212"
           d="m 29.621094,401.97536 0,-12.46289 c -1.7e-5,-1.5703 -0.357438,-2.74217 -1.072266,-3.51562 -0.714858,-0.77343 -1.833998,-1.16014 -3.357422,-1.16016 -2.015635,2e-5 -3.492196,0.54494 -4.429687,1.63476 -0.937507,1.08986 -1.406256,2.88869 -1.40625,5.39649 l 0,10.10742 -2.917969,0 0,-19.26562 2.373047,0 0.474609,2.63671 0.140625,0 c 0.59765,-0.9492 1.43554,-1.68162 2.513672,-2.19726 1.078115,-0.52733 2.279286,-0.791 3.603516,-0.79102 2.320298,2e-5 4.06639,0.56252 5.238281,1.6875 1.171856,1.1133 1.757793,2.90041 1.757812,5.36133 l 0,12.56836 -2.917968,0" /><path
           inkscape:connector-curvature="0"
           id="path4214"
           d="m 62.144531,392.32497 c -1.9e-5,3.14063 -0.791034,5.59571 -2.373047,7.36523 -1.582047,1.75782 -3.767591,2.63672 -6.55664,2.63672 -1.722666,0 -3.251961,-0.40429 -4.587891,-1.21289 -1.335942,-0.80859 -2.367191,-1.96874 -3.09375,-3.48047 -0.726565,-1.51171 -1.089846,-3.28124 -1.089844,-5.30859 -2e-6,-3.14061 0.785154,-5.58397 2.355469,-7.33008 1.570307,-1.75779 3.749992,-2.6367 6.539063,-2.63672 2.695299,2e-5 4.833968,0.89651 6.416015,2.68946 1.593731,1.79298 2.390606,4.21876 2.390625,7.27734 m -14.677734,0 c -5e-6,2.46094 0.492182,4.33594 1.476562,5.625 0.984368,1.28907 2.431632,1.9336 4.341797,1.93359 1.910144,1e-5 3.357408,-0.63867 4.341797,-1.91601 0.996078,-1.28906 1.494124,-3.16992 1.494141,-5.64258 -1.7e-5,-2.44921 -0.498063,-4.30663 -1.494141,-5.57227 -0.984389,-1.27732 -2.443372,-1.91599 -4.376953,-1.91601 -1.910165,2e-5 -3.35157,0.62697 -4.324219,1.88086 -0.972662,1.25392 -1.458989,3.12306 -1.458984,5.60742" /><path
           inkscape:connector-curvature="0"
           id="path4216"
           d="m 83.207031,402.32692 c -1.253917,0 -2.402353,-0.22851 -3.445312,-0.68554 -1.031258,-0.46875 -1.898444,-1.1836 -2.601563,-2.14453 l -0.210937,0 c 0.140619,1.125 0.210931,2.1914 0.210937,3.19921 l 0,7.92774 -2.917969,0 0,-27.91406 2.373047,0 0.404297,2.63671 0.140625,0 c 0.749993,-1.05467 1.623039,-1.81638 2.619141,-2.28515 0.996084,-0.46873 2.138661,-0.70311 3.427734,-0.70313 2.554673,2e-5 4.523421,0.87307 5.90625,2.61914 1.394512,1.74611 2.091777,4.19533 2.091797,7.34766 -2e-5,3.16407 -0.709004,5.625 -2.126953,7.38281 -1.406267,1.7461 -3.363296,2.61914 -5.871094,2.61914 m -0.421875,-17.49023 c -1.968759,2e-5 -3.392586,0.54494 -4.271484,1.63476 -0.878913,1.08986 -1.330084,2.82424 -1.353516,5.20313 l 0,0.65039 c -6e-6,2.70704 0.451166,4.64649 1.353516,5.81836 0.902335,1.16016 2.3496,1.74024 4.341797,1.74023 1.664049,1e-5 2.964829,-0.67382 3.902343,-2.02148 0.949203,-1.34765 1.423812,-3.20507 1.423829,-5.57227 -1.7e-5,-2.40233 -0.474626,-4.24217 -1.423829,-5.51953 -0.937514,-1.28904 -2.261732,-1.93357 -3.972656,-1.93359" /><path
           inkscape:connector-curvature="0"
           id="path4218"
           d="m 110.59766,399.88356 c 1.9453,1e-5 3.36326,-0.52148 4.2539,-1.56445 0.89061,-1.04296 1.36522,-2.80077 1.42383,-5.27344 l 0,-0.65039 c -2e-5,-2.6953 -0.45705,-4.63475 -1.37109,-5.81836 -0.91408,-1.18357 -2.36134,-1.77537 -4.3418,-1.77539 -1.71095,2e-5 -3.02344,0.66799 -3.9375,2.00391 -0.90235,1.32423 -1.35352,3.19923 -1.35352,5.625 0,2.42579 0.44531,4.27735 1.33594,5.55469 0.90234,1.26562 2.23242,1.89844 3.99024,1.89843 m -0.43946,2.44336 c -2.48438,0 -4.42383,-0.87304 -5.81836,-2.61914 -1.39453,-1.74609 -2.0918,-4.18358 -2.09179,-7.3125 -1e-5,-3.15233 0.70312,-5.61326 2.10937,-7.38281 1.40625,-1.76951 3.36328,-2.65428 5.8711,-2.6543 2.6367,2e-5 4.66404,0.99612 6.08203,2.98828 l 0.1582,0 0.42188,-2.63671 2.30273,0 0,27.91406 -2.91797,0 0,-8.24414 c -2e-5,-1.17188 0.0644,-2.16797 0.19336,-2.98828 l -0.22852,0 c -1.34767,1.95703 -3.37501,2.93554 -6.08203,2.93554" /><path
           inkscape:connector-curvature="0"
           id="path4220"
           d="m 141.1875,382.35817 c 0.85546,2e-5 1.62303,0.0703 2.30273,0.21094 l -0.40429,2.70703 c -0.79689,-0.17576 -1.50001,-0.26365 -2.10938,-0.26367 -1.5586,2e-5 -2.89454,0.63283 -4.00781,1.89844 -1.10157,1.26564 -1.65235,2.84181 -1.65234,4.72851 l 0,10.33594 -2.91797,0 0,-19.26562 2.4082,0 0.33398,3.56836 0.14063,0 c 0.71484,-1.25389 1.57616,-2.22069 2.58398,-2.9004 1.00781,-0.67966 2.11523,-1.01951 3.32227,-1.01953" /><path
           inkscape:connector-curvature="0"
           id="path4222"
           d="m 166.52148,396.7195 c -1e-5,1.79297 -0.66798,3.17578 -2.0039,4.14844 -1.33595,0.97266 -3.21095,1.45898 -5.625,1.45898 -2.55469,0 -4.54688,-0.40429 -5.97656,-1.21289 l 0,-2.70703 c 0.92577,0.46875 1.91601,0.83789 2.9707,1.10742 1.0664,0.26954 2.09179,0.4043 3.07617,0.4043 1.52343,0 2.6953,-0.24023 3.51563,-0.7207 0.8203,-0.49219 1.23045,-1.23633 1.23046,-2.23242 -1e-5,-0.75 -0.32813,-1.38867 -0.98437,-1.91602 -0.64454,-0.53906 -1.91017,-1.17187 -3.79688,-1.89844 -1.79297,-0.66796 -3.07031,-1.24803 -3.83203,-1.74023 -0.75,-0.5039 -1.3125,-1.07226 -1.6875,-1.70508 -0.36328,-0.6328 -0.54492,-1.38866 -0.54492,-2.26758 0,-1.57029 0.63867,-2.80662 1.91602,-3.70898 1.27734,-0.91405 3.02929,-1.37108 5.25586,-1.3711 2.0742,2e-5 4.10155,0.4219 6.08203,1.26563 l -1.03711,2.37305 c -1.93361,-0.79686 -3.68556,-1.1953 -5.25586,-1.19532 -1.38282,2e-5 -2.42579,0.21682 -3.12891,0.65039 -0.70313,0.43361 -1.05469,1.03127 -1.05469,1.79297 0,0.51564 0.12891,0.95509 0.38672,1.31836 0.26953,0.3633 0.69726,0.709 1.28321,1.03711 0.58593,0.32814 1.71093,0.80275 3.375,1.42383 2.28514,0.83204 3.82616,1.66993 4.62304,2.51367 0.80858,0.84376 1.21288,1.9043 1.21289,3.18164" /><path
           inkscape:connector-curvature="0"
           id="path4224"
           d="m 184.47266,399.91872 c 0.51561,0 1.01366,-0.0351 1.49414,-0.10547 0.48045,-0.082 0.86131,-0.16406 1.14257,-0.24609 l 0,2.23242 c -0.31641,0.15234 -0.78516,0.27539 -1.40625,0.36914 -0.60938,0.10547 -1.16016,0.1582 -1.65234,0.1582 -3.72657,0 -5.58985,-1.96289 -5.58984,-5.88867 l 0,-11.46094 -2.75977,0 0,-1.40625 2.75977,-1.21289 1.23047,-4.11328 1.6875,0 0,4.46485 5.58984,0 0,2.26757 -5.58984,0 0,11.33789 c -1e-5,1.16017 0.27538,2.05079 0.82617,2.67188 0.55077,0.6211 1.30663,0.93164 2.26758,0.93164" /><path
           inkscape:connector-curvature="0"
           id="path4226"
           d="m 200.71875,382.70974 0,12.49804 c -1e-5,1.57032 0.35742,2.74219 1.07227,3.51563 0.71483,0.77344 1.83397,1.16016 3.35742,1.16015 2.01561,1e-5 3.48631,-0.55077 4.41211,-1.65234 0.93748,-1.10156 1.40623,-2.90038 1.40625,-5.39648 l 0,-10.125 2.91797,0 0,19.26562 -2.40821,0 -0.42187,-2.58398 -0.15821,0 c -0.59767,0.94922 -1.4297,1.67578 -2.49609,2.17968 -1.0547,0.50391 -2.26173,0.75586 -3.62109,0.75586 -2.34376,0 -4.10157,-0.55664 -5.27344,-1.66992 -1.16016,-1.11328 -1.74024,-2.89453 -1.74024,-5.34375 l 0,-12.60351 2.95313,0" /><path
           inkscape:connector-curvature="0"
           id="path4228"
           d="m 231.27344,401.97536 -7.3125,-19.26562 3.1289,0 4.14844,11.42578 c 0.93749,2.67188 1.48827,4.40625 1.65234,5.20312 l 0.14063,0 c 0.1289,-0.62109 0.53319,-1.90429 1.21289,-3.84961 0.6914,-1.95702 2.23241,-6.21678 4.62305,-12.77929 l 3.1289,0 -7.3125,19.26562 -3.41015,0" /><path
           inkscape:connector-curvature="0"
           id="path4230"
           d="m 267.85742,401.97536 -3.5332,-11.30273 c -0.22267,-0.6914 -0.63869,-2.26171 -1.24805,-4.71094 l -0.14062,0 c -0.46877,2.05079 -0.87892,3.63282 -1.23047,4.74609 l -3.63867,11.26758 -3.375,0 -5.25586,-19.26562 3.05859,0 c 1.24218,4.83985 2.18554,8.5254 2.83008,11.05664 0.65624,2.53125 1.03124,4.23633 1.125,5.11523 l 0.14062,0 c 0.1289,-0.66796 0.33398,-1.52929 0.61524,-2.58398 0.29296,-1.0664 0.54491,-1.91015 0.75586,-2.53125 l 3.5332,-11.05664 3.16406,0 3.44532,11.05664 c 0.65623,2.01563 1.10154,3.70899 1.33593,5.08007 l 0.14063,0 c 0.0469,-0.42187 0.1699,-1.07226 0.36914,-1.95117 0.21092,-0.8789 1.43552,-5.60741 3.67383,-14.18554 l 3.02343,0 -5.32617,19.26562 -3.46289,0" /><path
           inkscape:connector-curvature="0"
           id="path4232"
           d="m 291.75,392.11403 -6.69727,-9.40429 3.32227,0 5.08008,7.38281 5.0625,-7.38281 3.28711,0 -6.69727,9.40429 7.04883,9.86133 -3.30469,0 -5.39648,-7.80469 -5.44922,7.80469 -3.30469,0 7.04883,-9.86133" /><path
           inkscape:connector-curvature="0"
           id="path4234"
           d="m 309.89453,382.70974 3.12891,0 4.21875,10.98632 c 0.92577,2.50782 1.49999,4.31837 1.72265,5.43164 l 0.14063,0 c 0.15233,-0.59765 0.46874,-1.61718 0.94922,-3.05859 0.49217,-1.45312 2.08592,-5.90624 4.78125,-13.35937 l 3.1289,0 -8.27929,21.9375 c -0.82032,2.16796 -1.78126,3.70311 -2.88282,4.60546 -1.08985,0.91406 -2.43164,1.37109 -4.02539,1.3711 -0.89062,-1e-5 -1.76953,-0.0996 -2.63672,-0.29883 l 0,-2.33789 c 0.64454,0.14062 1.36524,0.21093 2.16211,0.21094 2.00391,-10e-6 3.43359,-1.12501 4.28907,-3.375 l 1.07226,-2.74219 -7.76953,-19.37109" /><path
           inkscape:connector-curvature="0"
           id="path4236"
           d="m 350.41602,401.97536 -13.97461,0 0,-1.98633 10.51171,-15.01172 -9.86132,0 0,-2.26757 13.06054,0 0,2.26757 -10.37109,14.73047 10.63477,0 0,2.26758" /></g><g
         id="flowRoot5081"
         style="font-size:36px;font-style:normal;font-variant:normal;font-weight:normal;font-stretch:normal;line-height:125%;letter-spacing:8px;word-spacing:0px;fill:#000000;fill-opacity:1;stroke:none;font-family:Open Sans;-inkscape-font-specification:Open Sans"
         transform="translate(13.585938,38.666666)"><path
           inkscape:connector-curvature="0"
           id="path5090"
           d="m 30.285156,319.31911 -0.580078,-2.74219 -0.140625,0 c -0.960951,1.20704 -1.921887,2.02735 -2.882812,2.46094 -0.94923,0.42188 -2.138681,0.63281 -3.56836,0.63281 -1.910162,0 -3.41016,-0.49218 -4.5,-1.47656 -1.078127,-0.98437 -1.617189,-2.38476 -1.617187,-4.20117 -2e-6,-3.89062 3.111323,-5.92968 9.333984,-6.11719 l 3.269531,-0.10547 0,-1.19531 c -1.4e-5,-1.5117 -0.328139,-2.62498 -0.984375,-3.33984 -0.644544,-0.72655 -1.681652,-1.08983 -3.111328,-1.08985 -1.605477,2e-5 -3.421881,0.49221 -5.449219,1.47657 l -0.896484,-2.23243 c 0.949214,-0.5156 1.986322,-0.9199 3.111328,-1.21289 1.136711,-0.29295 2.273429,-0.43943 3.410156,-0.43945 2.296863,2e-5 3.99608,0.50978 5.097657,1.5293 1.113264,1.01954 1.669905,2.65431 1.669922,4.90429 l 0,13.14844 -2.16211,0 m -6.591797,-2.05664 c 1.816396,0 3.240223,-0.49804 4.271485,-1.49414 1.042955,-0.99609 1.564439,-2.39062 1.564453,-4.18359 l 0,-1.74024 -2.917969,0.12305 c -2.320321,0.082 -3.996101,0.44532 -5.027344,1.08984 -1.019536,0.63282 -1.529301,1.62306 -1.529297,2.97071 -4e-6,1.05469 0.316402,1.85742 0.949219,2.4082 0.644525,0.55078 1.541009,0.82617 2.689453,0.82617" /><path
           inkscape:connector-curvature="0"
           id="path5092"
           d="m 55.441406,299.73708 c 2.531236,2e-5 4.494124,0.86721 5.888672,2.60156 1.406231,1.72267 2.109355,4.16603 2.109375,7.33008 -2e-5,3.16407 -0.709004,5.625 -2.126953,7.38281 -1.406267,1.7461 -3.363296,2.61914 -5.871094,2.61914 -1.253917,0 -2.402353,-0.22851 -3.445312,-0.68554 -1.031258,-0.46875 -1.898444,-1.1836 -2.601563,-2.14453 l -0.210937,0 -0.615235,2.47851 -2.091797,0 0,-27.35156 2.917969,0 0,6.64453 c -6e-6,1.4883 -0.04688,2.82424 -0.140625,4.00781 l 0.140625,0 c 1.359368,-1.92185 3.374991,-2.88279 6.046875,-2.88281 m -0.421875,2.44336 c -1.992197,2e-5 -3.427742,0.57423 -4.30664,1.72266 -0.878913,1.13673 -1.318366,3.0586 -1.31836,5.76562 -6e-6,2.70704 0.451166,4.64649 1.353516,5.81836 0.902335,1.16016 2.3496,1.74024 4.341797,1.74023 1.792955,1e-5 3.128891,-0.65038 4.007812,-1.95117 0.87889,-1.31249 1.318343,-3.19335 1.31836,-5.64258 -1.7e-5,-2.5078 -0.43947,-4.37694 -1.31836,-5.60742 -0.878921,-1.23045 -2.238294,-1.84568 -4.078125,-1.8457" /><path
           inkscape:connector-curvature="0"
           id="path5094"
           d="m 84.253906,319.67067 c -2.78907,0 -4.951177,-0.85546 -6.486328,-2.5664 -1.52344,-1.72266 -2.285158,-4.15429 -2.285156,-7.29492 -2e-6,-3.22265 0.773435,-5.71288 2.320312,-7.47071 1.558588,-1.75779 3.77343,-2.6367 6.644532,-2.63672 0.925769,2e-5 1.851549,0.0996 2.777343,0.29883 0.925767,0.19924 1.652329,0.43361 2.179688,0.70313 l -0.896485,2.47851 c -0.644545,-0.25779 -1.347669,-0.46873 -2.109375,-0.63281 -0.76173,-0.17576 -1.435558,-0.26366 -2.021484,-0.26367 -3.914069,10e-6 -5.871099,2.49611 -5.871094,7.48828 -5e-6,2.36719 0.474604,4.1836 1.423828,5.44922 0.960931,1.26563 2.378898,1.89844 4.253907,1.89844 1.605456,0 3.251939,-0.34571 4.939453,-1.03711 l 0,2.58398 c -1.289077,0.66797 -2.912122,1.00195 -4.869141,1.00195" /><path
           inkscape:connector-curvature="0"
           id="path5096"
           d="m 114.82422,316.73513 -0.1582,0 c -1.34768,1.95703 -3.3633,2.93554 -6.04688,2.93554 -2.51954,0 -4.48243,-0.86132 -5.88867,-2.58398 -1.39454,-1.72265 -2.0918,-4.17187 -2.0918,-7.34766 0,-3.17577 0.70312,-5.64256 2.10938,-7.40039 1.40624,-1.75779 3.36327,-2.6367 5.87109,-2.63672 2.61327,2e-5 4.61717,0.94924 6.01172,2.84766 l 0.22852,0 -0.12305,-1.38867 -0.0703,-1.35352 0,-7.83984 2.91796,0 0,27.35156 -2.37304,0 -0.38672,-2.58398 m -5.83594,0.49218 c 1.99218,1e-5 3.43358,-0.53906 4.32422,-1.61718 0.90233,-1.08984 1.3535,-2.84179 1.35352,-5.25586 l 0,-0.61524 c -2e-5,-2.73045 -0.45705,-4.67576 -1.3711,-5.83593 -0.90236,-1.17186 -2.34962,-1.7578 -4.34179,-1.75782 -1.71095,2e-5 -3.02345,0.66799 -3.9375,2.00391 -0.90235,1.32423 -1.35353,3.19923 -1.35352,5.625 -1e-5,2.46094 0.45117,4.31836 1.35352,5.57226 0.90233,1.25391 2.22655,1.88087 3.97265,1.88086" /><path
           inkscape:connector-curvature="0"
           id="path5098"
           d="m 139.92773,319.67067 c -2.84766,0 -5.09766,-0.86718 -6.75,-2.60156 -1.64062,-1.73437 -2.46094,-4.14257 -2.46093,-7.22461 -1e-5,-3.10545 0.76171,-5.57225 2.28515,-7.40039 1.53515,-1.82811 3.59179,-2.74217 6.16992,-2.74219 2.41405,2e-5 4.32421,0.7969 5.73047,2.39063 1.40624,1.58205 2.10936,3.67384 2.10938,6.27539 l 0,1.8457 -13.27149,0 c 0.0586,2.26173 0.62695,3.97852 1.70508,5.15039 1.08984,1.17188 2.61913,1.75782 4.58789,1.75782 2.07421,0 4.12499,-0.4336 6.15235,-1.30079 l 0,2.60157 c -1.03127,0.44531 -2.00978,0.76172 -2.93555,0.94922 -0.91408,0.19921 -2.0215,0.29882 -3.32227,0.29882 m -0.79101,-17.52539 c -1.54689,2e-5 -2.78321,0.50393 -3.70899,1.51172 -0.91406,1.00783 -1.45313,2.40236 -1.61718,4.1836 l 10.07226,0 c -1e-5,-1.83984 -0.41017,-3.24608 -1.23047,-4.21875 -0.82032,-0.98436 -1.9922,-1.47655 -3.51562,-1.47657" /><path
           inkscape:connector-curvature="0"
           id="path5100"
           d="m 168.65234,302.32106 -4.90429,0 0,16.99805 -2.91797,0 0,-16.99805 -3.44531,0 0,-1.31836 3.44531,-1.05468 0,-1.07227 c -1e-5,-4.73435 2.06835,-7.10153 6.20508,-7.10156 1.01952,3e-5 2.21483,0.2051 3.58593,0.61523 l -0.75586,2.33789 c -1.12501,-0.36325 -2.08594,-0.54489 -2.88281,-0.54492 -1.10157,3e-5 -1.91602,0.36917 -2.44336,1.10742 -0.52735,0.72659 -0.79102,1.89846 -0.79101,3.51563 l 0,1.24805 4.90429,0 0,2.26757" /><path
           inkscape:connector-curvature="0"
           id="path5102"
           d="m 195.9707,300.05349 0,1.8457 -3.56836,0.42187 c 0.32811,0.41018 0.62108,0.94924 0.87891,1.61719 0.2578,0.65627 0.3867,1.40041 0.38672,2.23242 -2e-5,1.88673 -0.64455,3.39259 -1.9336,4.51758 -1.28907,1.12501 -3.0586,1.68751 -5.30859,1.6875 -0.57423,1e-5 -1.11329,-0.0469 -1.61719,-0.14062 -1.24219,0.65625 -1.86328,1.48242 -1.86328,2.47851 0,0.52735 0.21679,0.91993 0.65039,1.17774 0.43359,0.24609 1.17773,0.36914 2.23242,0.36914 l 3.41016,0 c 2.08592,0 3.68553,0.43945 4.79883,1.31836 1.12498,0.8789 1.68748,2.15625 1.6875,3.83203 -2e-5,2.13281 -0.85549,3.75585 -2.56641,4.86914 -1.71095,1.12499 -4.20704,1.68749 -7.48828,1.6875 -2.51954,-1e-5 -4.46485,-0.46876 -5.83594,-1.40625 -1.35937,-0.93751 -2.03906,-2.26173 -2.03906,-3.97266 0,-1.17188 0.375,-2.18555 1.125,-3.04101 0.75,-0.85547 1.80469,-1.43555 3.16406,-1.74024 -0.49219,-0.22265 -0.9082,-0.56836 -1.24804,-1.03711 -0.32813,-0.46874 -0.49219,-1.01367 -0.49219,-1.63476 0,-0.70312 0.1875,-1.31836 0.5625,-1.84571 0.375,-0.52733 0.96679,-1.0371 1.77539,-1.52929 -0.9961,-0.41015 -1.81055,-1.10742 -2.44336,-2.0918 -0.6211,-0.98436 -0.93164,-2.10936 -0.93164,-3.375 0,-2.10936 0.63281,-3.7324 1.89844,-4.86914 1.26562,-1.14842 3.05858,-1.72264 5.3789,-1.72266 1.00781,2e-5 1.91601,0.11721 2.72461,0.35157 l 6.66211,0 m -15.36328,22.5 c 0,1.04296 0.43945,1.83398 1.31836,2.37304 0.8789,0.53906 2.13867,0.80859 3.7793,0.8086 2.44921,-1e-5 4.25975,-0.36915 5.43164,-1.10743 1.18358,-0.72656 1.77537,-1.7168 1.77539,-2.9707 -2e-5,-1.04297 -0.32228,-1.76953 -0.9668,-2.17969 -0.64454,-0.39843 -1.85743,-0.59765 -3.63867,-0.59765 l -3.49805,0 c -1.32422,0 -2.35547,0.3164 -3.09375,0.94922 -0.73828,0.63281 -1.10742,1.54101 -1.10742,2.72461 m 1.58203,-16.33008 c 0,1.34767 0.38086,2.3672 1.14258,3.05859 0.76171,0.69142 1.82226,1.03712 3.18164,1.03711 2.84765,10e-6 4.27147,-1.3828 4.27149,-4.14844 -2e-5,-2.89451 -1.44142,-4.34178 -4.32422,-4.34179 -1.3711,10e-6 -2.42579,0.36915 -3.16407,1.10742 -0.73828,0.7383 -1.10742,1.834 -1.10742,3.28711" /><path
           inkscape:connector-curvature="0"
           id="path5104"
           d="m 221.14453,319.31911 0,-12.46289 c -2e-5,-1.5703 -0.35744,-2.74217 -1.07226,-3.51562 -0.71486,-0.77343 -1.834,-1.16014 -3.35743,-1.16016 -2.02735,2e-5 -3.50977,0.5508 -4.44726,1.65234 -0.92579,1.10158 -1.38868,2.90627 -1.38867,5.41407 l 0,10.07226 -2.91797,0 0,-27.35156 2.91797,0 0,8.2793 c -1e-5,0.99611 -0.0469,1.82228 -0.14063,2.47851 l 0.17578,0 c 0.57421,-0.92576 1.38867,-1.65232 2.44336,-2.17969 1.0664,-0.53904 2.27929,-0.80857 3.63867,-0.80859 2.35546,2e-5 4.11913,0.56252 5.29102,1.6875 1.18357,1.1133 1.77537,2.88869 1.77539,5.32617 l 0,12.56836 -2.91797,0" /><path
           inkscape:connector-curvature="0"
           id="path5106"
           d="m 240.95703,319.31911 -2.91797,0 0,-19.26562 2.91797,0 0,19.26562 m -3.16406,-24.48633 c 0,-0.66794 0.16406,-1.15427 0.49219,-1.45898 0.32812,-0.31638 0.73827,-0.47458 1.23046,-0.47461 0.46875,3e-5 0.87305,0.15823 1.2129,0.47461 0.33983,0.31643 0.50975,0.80276 0.50976,1.45898 -1e-5,0.65628 -0.16993,1.14846 -0.50976,1.47657 -0.33985,0.31642 -0.74415,0.47463 -1.2129,0.4746 -0.49219,3e-5 -0.90234,-0.15818 -1.23046,-0.4746 -0.32813,-0.32811 -0.49219,-0.82029 -0.49219,-1.47657" /><path
           inkscape:connector-curvature="0"
           id="path5108"
           d="m 252.8418,327.96755 c -1.11328,-1e-5 -2.01563,-0.14649 -2.70703,-0.43945 l 0,-2.37305 c 0.80859,0.23437 1.60546,0.35155 2.39062,0.35156 0.91406,-1e-5 1.58203,-0.25196 2.00391,-0.75586 0.43359,-0.49219 0.65038,-1.24805 0.65039,-2.26758 l 0,-22.42968 2.91797,0 0,22.21875 c -1e-5,3.79686 -1.75196,5.6953 -5.25586,5.69531 m 2.09179,-33.13477 c 0,-0.66794 0.16406,-1.15427 0.49219,-1.45898 0.32812,-0.31638 0.73828,-0.47458 1.23047,-0.47461 0.46874,3e-5 0.87304,0.15823 1.21289,0.47461 0.33984,0.31643 0.50976,0.80276 0.50977,1.45898 -1e-5,0.65628 -0.16993,1.14846 -0.50977,1.47657 -0.33985,0.31642 -0.74415,0.47463 -1.21289,0.4746 -0.49219,3e-5 -0.90235,-0.15818 -1.23047,-0.4746 -0.32813,-0.32811 -0.49219,-0.82029 -0.49219,-1.47657" /><path
           inkscape:connector-curvature="0"
           id="path5110"
           d="m 275.20312,309.45778 c 0.5039,-0.71483 1.27148,-1.65233 2.30274,-2.8125 l 6.22266,-6.59179 3.46289,0 -7.80469,8.20898 8.34961,11.05664 -3.53321,0 -6.80273,-9.10547 -2.19727,1.89844 0,7.20703 -2.88281,0 0,-27.35156 2.88281,0 0,14.50195 c 0,0.64454 -0.0469,1.64064 -0.14062,2.98828 l 0.14062,0" /><path
           inkscape:connector-curvature="0"
           id="path5112"
           d="m 302.15234,319.31911 -2.91797,0 0,-27.35156 2.91797,0 0,27.35156" /><path
           inkscape:connector-curvature="0"
           id="path5114"
           d="m 340.93164,319.31911 0,-12.5332 c -3e-5,-1.53514 -0.32815,-2.68358 -0.98437,-3.44531 -0.65628,-0.77343 -1.67581,-1.16014 -3.0586,-1.16016 -1.81643,2e-5 -3.15822,0.5215 -4.02539,1.56445 -0.8672,1.04299 -1.3008,2.64845 -1.30078,4.81641 l 0,10.75781 -2.91797,0 0,-12.5332 c -10e-6,-1.53514 -0.32814,-2.68358 -0.98437,-3.44531 -0.65627,-0.77343 -1.68166,-1.16014 -3.07618,-1.16016 -1.82813,2e-5 -3.16993,0.5508 -4.02539,1.65234 -0.84375,1.08986 -1.26563,2.88283 -1.26562,5.37891 l 0,10.10742 -2.91797,0 0,-19.26562 2.37305,0 0.47461,2.63671 0.14062,0 c 0.55078,-0.93748 1.32421,-1.6699 2.32031,-2.19726 1.00781,-0.52733 2.13281,-0.791 3.375,-0.79102 3.01171,2e-5 4.98046,1.08987 5.90625,3.26953 l 0.14063,0 c 0.5742,-1.00779 1.40623,-1.80466 2.49609,-2.39062 1.08982,-0.58592 2.33201,-0.87889 3.72656,-0.87891 2.17967,2e-5 3.80857,0.56252 4.88672,1.6875 1.08982,1.1133 1.63474,2.90041 1.63477,5.36133 l 0,12.56836 -2.91797,0" /></g></g></g></g></svg>