<svg xmlns="http://www.w3.org/2000/svg" width="600" height="600" version="1"><g><path d="M207.66 52.05c11.062 1.09 14.685 14.198 13.065 23.563-4.517 20.585-11.1 42.078-16.673 62.562 4.133 13.394-23.874 8.257-14.232-2.573 10.213-24.968 17.852-56.387 17.84-83.552zm0-40.02c14.074-11.31 31.89 39.523-13.417 20.214-.173-2.514 13.97-17.692 13.418-20.214zm34.288 82.363V52.05c11.572 1.12 16.575 15.694 12.246 25.357-2.73 11.794-2.218 26.758 8.412 34.596 13.488 6.767 30.61-8.136 26.87-22.427.824-10.948-3.625-22.412 1.06-32.93 13.342-2.04 16.192 16.103 10.08 24.785-3.038 9.37 1.998 18.784.814 28.105-2.51 10.88-14.414 11.26-23.34 11.72-9.875 1.982-22.42 4.6-29.806-4.37-5.368-6.04-7.36-14.587-6.336-22.492zM368.913 54.11c-5.147 12.694-19.977 4.24-29.398 6.388-17.847 24.443 27.45 18.815 33.132 41.186.305 12.292-11.384 22.867-23.53 21.945-7.83 1.048-22.51 3.447-23.734-7.52 5.518-11.25 18.665 1.67 26.957-2.694 11.32-5.47 4.92-21.046-5.783-22.54-7.538-2.176-16.864-.616-22.217-7.73-7.91-7.877-5.516-21.614 3.082-27.957 12.04-9.022 28.354-5.04 41.49-1.08zm33.475-21.92c-6.976 9.518 5.69 24.354 16.168 18.865 6.337 12.455-15.748 10.763-16.075 21.335-12.98 23.475 12.85 39.6 7.024 51.075-13.627-.998-20.768-16.456-19.15-28.767.84-9.66 3.056-19.99-1.626-29.068-3.43-11.68-1.104-27.043 10.432-33.375l1.61-.223 1.618.158z"/><path d="M46.87 279.892c-29.327-17.606-36.11 47.89-2.928 32.07 12.664-3.818 29.282-38.243 2.93-32.07zm27.505-5.695c-1.587 15.028 9.272 54.786-18.35 41.885-15.953 11.358-39.91 15.488-49.858-6.098-11.942-27.666 17.912-46.586 41.85-39.792 26.865-13.048-9.934-32.122-25.194-19.435-23.466-1.97 1.916-19.957 14.342-15.087 19.778-.545 39.695 15.458 37.234 36.362l-.014 1.21-.01.955zm98.25-2.773c-5.707 15.078 12.557 44.19-11.2 48.073-12.098-21.543 13.76-63.188-20.44-70.505-30.98 1.706-27.7 37.506-22.91 58.247-1.015 17.1-20.533 14.314-15.45-3.073 1.704-19.057-8.314-57.834 8.963-63.765 16.126 13.468 30.536-19 47.743-.107 9.396 7.08 15.19 19.338 13.295 31.13zm52.925 39.755c22.78 6.386 36.557-22.01 31.295-41.002-21.09-49.962-71.686 6.3-31.295 41zm7.254-75.054c77.666 10.69 20.87 134.708-33.59 67.844-13.41-24.717-1.956-65.248 29.433-67.732l4.157-.112zm74.943-21.81c-11.793 20.635 20.013 25.85 26.695 29.493-10.83 9.464-36.716 5.665-27.32 28.946-3.57 20.583 5.912 40.134 26.273 43.384-13.576 20.7-46.382-3.264-40.42-25.75 6.33-18.117-3.638-37.4-5.647-51.39 16.837-6.843-3.714-33.004 20.42-24.683zm116.387 57.108c-5.707 15.078 12.556 44.19-11.2 48.073-12.1-21.543 13.76-63.188-20.44-70.505-29.99 1.534-28.603 36.527-22.664 56.965-4.237 26.292-22.89 6.053-16.177-10.64.84-24.997 1.075-50.105-1.477-74.978 4.788-25.155 24.05-5.664 15.387 10.414-4.024 13.483 2.914 22.122 12.68 8.19 20.502-10.544 50.31 8.643 43.89 32.48zm99.45 5.246c-13.848 22.584-57.32-12.264-60.333 19.633 5.996 27.374 46.68 8.2 53.833 17.2-14.606 21.69-50.984 11.04-64.644-7.164-19.36-27.394 2.1-75.763 38.17-70.64 19.395 2.026 35.683 21.38 32.973 40.97zm-13.79-4.047c7.53-30.068-55.376-32.32-44.523-2.597 12.746 9.343 30.32-1.562 44.524 2.597zm85.06-21.584c-20.874-10.732-37.94 13.77-37.26 32.784.982 11.773 10.244 42.54-10.87 34.618-.46-26.488-4.32-54.095 1.845-80.382 11.02 1.066 18.483 14.91 26.247-.82 9.47-4.852 27.304.353 20.037 13.8z"/><path d="M86.26 400.836c-104.086 1.718-20.104 16.61-25.02 35.387-32.403 6.164-60.885-36.82-40.32-63.65 12.47-23.358 54.107-26.68 64.545.147 4.032 8.733 4.644 19.206.794 28.116zm-11-7.25c22.678-25.212-48.936-38.67-29.037-8.642 8.69 5.838 20.436 2.562 29.038 8.642zm102.332-1.693c-26.715 7.243-42.45 40.108-24.54 62.916-9.746 11.656-20.573-7.376-16.713-16.58-7.162-16.618-47.692 16.737-34.986-4.786 24.13-8.553 19.26-33.11 17.1-51.417 12.813-3.027 14.772 31.49 32.662 15.843 7.56-4.986 17.647-14.443 26.476-5.977zm40.68 52.487c-26.87-25.427-32.947 47.158-2.32 24.736 9.185-3.92 20.802-26.075 2.32-24.736zm25.634 2.395c4.242 27.723-30.384 47.248-53.37 33.574-24.926-8.5-17.352-54.653 10.692-48.957 13.644 12.95 45.638-10.013 16.962-14.568-15.437-2.403-15.922-23.337 2.435-15.115 17.977 5.234 33.197 26.85 23.28 45.065zm132.39 36.285c-2.377 12.236-7.787 47.244-22.31 34.297 5.623-18.994 23.316-62.55-12.423-59.118-20.192 5.147-13.044 52.456-34.652 43.045 1.142-18.783 27.684-48.603-4.458-56.395-31.554-4.928-21.4 32.343-35.462 47.044-15.16-10.88 1.176-40.85 8.55-55.126 27.47-9.645 108.683 9.363 100.757 46.252zm25.884 46.058c7.61 12.333-27.575 68.067-26.062 41.364 9.212-23.887 21.61-78.766 32.236-98.878 23.252-6.872 57.5 3.163 58.836 31.312 2.92 25.844-22.544 55.497-49.56 44.856-7.79-3.095-14.55-10.046-15.45-18.654zm48.987-13.082c17.685-24-30.838-47.92-41.733-21.905-10.663 14.172-1.95 34.52 13.684 40.548 14.89 7.57 25.505-5.307 28.05-18.642zm52.647-55.503c12.703 15.11-4.245 97.996-26.04 90.5 4.764-31.26 19.467-59.644 26.04-90.5zm81.11 93.114c-104.085 1.718-20.103 16.61-25.02 35.387-32.402 6.164-60.884-36.82-40.32-63.65 12.47-23.36 54.108-26.68 64.546.146 4.032 8.734 4.644 19.207.794 28.117zm-10.998-7.25c22.677-25.212-48.937-38.67-29.04-8.642 8.692 5.838 20.437 2.562 29.04 8.642z" fill="#f00"/></g></svg>